<svg width="100" height="100" viewBox="0 0 100 100" fill="none" xmlns="http://www.w3.org/2000/svg">
<g clip-path="url(#clip0_2_77)">
<mask id="mask0_2_77" style="mask-type:luminance" maskUnits="userSpaceOnUse" x="1" y="0" width="98" height="101">
<path d="M97.741 41.0771H51.1501V60.3953H77.9682C75.4682 72.668 65.0137 79.7135 51.1501 79.7135C34.7864 79.7135 21.6046 66.5317 21.6046 50.168C21.6046 33.8044 34.7864 20.6226 51.1501 20.6226C58.1955 20.6226 64.5591 23.1226 69.5591 27.2135L84.1046 12.668C75.241 4.94076 63.8773 0.16803 51.1501 0.16803C23.4228 0.16803 1.15002 22.4408 1.15002 50.168C1.15002 77.8953 23.4228 100.168 51.1501 100.168C76.1501 100.168 98.8774 81.9862 98.8774 50.168C98.8774 47.2135 98.4228 44.0317 97.741 41.0771Z" fill="white"/>
</mask>
<g mask="url(#mask0_2_77)">
<path d="M-3.39539 79.7135V20.6226L35.241 50.168L-3.39539 79.7135Z" fill="#FBBC05"/>
</g>
<mask id="mask1_2_77" style="mask-type:luminance" maskUnits="userSpaceOnUse" x="1" y="0" width="98" height="101">
<path d="M97.741 41.0771H51.1501V60.3953H77.9682C75.4682 72.668 65.0137 79.7135 51.1501 79.7135C34.7864 79.7135 21.6046 66.5317 21.6046 50.168C21.6046 33.8044 34.7864 20.6226 51.1501 20.6226C58.1955 20.6226 64.5591 23.1226 69.5591 27.2135L84.1046 12.668C75.241 4.94076 63.8773 0.16803 51.1501 0.16803C23.4228 0.16803 1.15002 22.4408 1.15002 50.168C1.15002 77.8953 23.4228 100.168 51.1501 100.168C76.1501 100.168 98.8774 81.9862 98.8774 50.168C98.8774 47.2135 98.4228 44.0317 97.741 41.0771Z" fill="white"/>
</mask>
<g mask="url(#mask1_2_77)">
<path d="M-3.39539 20.6226L35.241 50.168L51.1501 36.3044L105.696 27.4408V-4.37743H-3.39539V20.6226Z" fill="#EA4335"/>
</g>
<mask id="mask2_2_77" style="mask-type:luminance" maskUnits="userSpaceOnUse" x="1" y="0" width="98" height="101">
<path d="M97.741 41.0771H51.1501V60.3953H77.9682C75.4682 72.668 65.0137 79.7135 51.1501 79.7135C34.7864 79.7135 21.6046 66.5317 21.6046 50.168C21.6046 33.8044 34.7864 20.6226 51.1501 20.6226C58.1955 20.6226 64.5591 23.1226 69.5591 27.2135L84.1046 12.668C75.241 4.94076 63.8773 0.16803 51.1501 0.16803C23.4228 0.16803 1.15002 22.4408 1.15002 50.168C1.15002 77.8953 23.4228 100.168 51.1501 100.168C76.1501 100.168 98.8774 81.9862 98.8774 50.168C98.8774 47.2135 98.4228 44.0317 97.741 41.0771Z" fill="white"/>
</mask>
<g mask="url(#mask2_2_77)">
<path d="M-3.39539 79.7135L64.7865 27.4408L82.741 29.7135L105.696 -4.37743V104.713H-3.39539V79.7135Z" fill="#34A853"/>
</g>
<mask id="mask3_2_77" style="mask-type:luminance" maskUnits="userSpaceOnUse" x="1" y="0" width="98" height="101">
<path d="M97.741 41.0771H51.1501V60.3953H77.9682C75.4682 72.668 65.0137 79.7135 51.1501 79.7135C34.7864 79.7135 21.6046 66.5317 21.6046 50.168C21.6046 33.8044 34.7864 20.6226 51.1501 20.6226C58.1955 20.6226 64.5591 23.1226 69.5591 27.2135L84.1046 12.668C75.241 4.94076 63.8773 0.16803 51.1501 0.16803C23.4228 0.16803 1.15002 22.4408 1.15002 50.168C1.15002 77.8953 23.4228 100.168 51.1501 100.168C76.1501 100.168 98.8774 81.9862 98.8774 50.168C98.8774 47.2135 98.4228 44.0317 97.741 41.0771Z" fill="white"/>
</mask>
<g mask="url(#mask3_2_77)">
<path d="M105.696 104.713L35.2409 50.168L26.15 43.3498L105.696 20.6226V104.713Z" fill="#4285F4"/>
</g>
</g>
<defs>
<clipPath id="clip0_2_77">
<rect width="100" height="100" fill="white"/>
</clipPath>
</defs>
</svg>
