<svg width="100" height="100" viewBox="0 0 100 100" fill="none" xmlns="http://www.w3.org/2000/svg">
<g clip-path="url(#clip0_2_99)">
<path d="M0 7.36409C0 3.41018 3.31016 0.200806 7.39062 0.200806H92.6094C96.6914 0.200806 100 3.41018 100 7.36409V93.0387C100 96.9938 96.6914 100.201 92.6094 100.201H7.39062C3.31055 100.201 0 96.9942 0 93.0399V7.36291V7.36409Z" fill="#0288D1"/>
<path d="M30.3891 83.8875V38.8672H15.425V83.8875H30.3906H30.3891ZM22.9102 32.7215C28.1273 32.7215 31.3754 29.2645 31.3754 24.9442C31.2777 20.5254 28.1273 17.1649 23.0094 17.1649C17.8879 17.1649 14.543 20.5254 14.543 24.9438C14.543 29.2641 17.7898 32.7211 22.8121 32.7211H22.909L22.9102 32.7215ZM38.6719 83.8875H53.6348V58.7488C53.6348 57.4051 53.7324 56.0578 54.1277 55.0981C55.209 52.4086 57.6711 49.6246 61.8059 49.6246C67.2191 49.6246 69.3859 53.7528 69.3859 59.8055V83.8875H84.3484V58.0742C84.3484 44.2465 76.9672 37.8117 67.1223 37.8117C59.0508 37.8117 55.5059 42.3231 53.5363 45.3957H53.6359V38.8688H38.6727C38.868 43.0922 38.6715 83.8891 38.6715 83.8891L38.6719 83.8875Z" fill="white"/>
</g>
<defs>
<clipPath id="clip0_2_99">
<rect width="100" height="100" fill="white"/>
</clipPath>
</defs>
</svg>
